<mxfile host="app.diagrams.net" modified="2020-11-04T07:44:32.721Z" agent="5.0 (Windows NT 10.0; Win64; x64) AppleWebKit/537.36 (KHTML, like Gecko) Chrome/86.0.4240.111 Safari/537.36" etag="BxuaQ8Wv47WkO2oP-oax" version="13.8.9-1" type="github">
  <diagram name="Page-1" id="c7488fd3-1785-93aa-aadb-54a6760d102a">
    <mxGraphModel dx="1038" dy="708" grid="1" gridSize="10" guides="1" tooltips="1" connect="1" arrows="1" fold="1" page="1" pageScale="1" pageWidth="1100" pageHeight="850" background="#ffffff" math="0" shadow="0">
      <root>
        <mxCell id="0" />
        <mxCell id="1" parent="0" />
        <mxCell id="2b4e8129b02d487f-1" value="Pool" style="swimlane;html=1;childLayout=stackLayout;horizontal=1;startSize=20;horizontalStack=0;rounded=0;shadow=0;labelBackgroundColor=none;strokeWidth=1;fontFamily=Verdana;fontSize=8;align=center;" parent="1" vertex="1">
          <mxGeometry x="180" y="70" width="720" height="470" as="geometry" />
        </mxCell>
        <mxCell id="2b4e8129b02d487f-2" value="L1" style="swimlane;html=1;startSize=40;horizontal=0;" parent="2b4e8129b02d487f-1" vertex="1">
          <mxGeometry y="20" width="720" height="150" as="geometry" />
        </mxCell>
        <mxCell id="2b4e8129b02d487f-5" value="监控系统发出业务量抖动告警或用户报障" style="ellipse;whiteSpace=wrap;html=1;rounded=0;shadow=0;labelBackgroundColor=none;strokeWidth=1;fontFamily=Verdana;fontSize=8;align=center;" parent="2b4e8129b02d487f-2" vertex="1">
          <mxGeometry x="50" y="30" width="80" height="80" as="geometry" />
        </mxCell>
        <mxCell id="2b4e8129b02d487f-7" value="创建工单&lt;br&gt;/电话通知" style="rounded=1;whiteSpace=wrap;html=1;shadow=0;labelBackgroundColor=none;strokeWidth=1;fontFamily=Verdana;fontSize=8;align=center;" parent="2b4e8129b02d487f-2" vertex="1">
          <mxGeometry x="200" y="51.49999999999997" width="70" height="37" as="geometry" />
        </mxCell>
        <mxCell id="2b4e8129b02d487f-8" value="结束" style="ellipse;whiteSpace=wrap;html=1;rounded=0;shadow=0;labelBackgroundColor=none;strokeWidth=2;fontFamily=Verdana;fontSize=8;align=center;" parent="2b4e8129b02d487f-2" vertex="1">
          <mxGeometry x="590" y="35" width="100" height="70" as="geometry" />
        </mxCell>
        <mxCell id="2b4e8129b02d487f-18" style="edgeStyle=orthogonalEdgeStyle;rounded=0;html=1;labelBackgroundColor=none;startArrow=none;startFill=0;startSize=5;endArrow=classicThin;endFill=1;endSize=5;jettySize=auto;orthogonalLoop=1;strokeWidth=1;fontFamily=Verdana;fontSize=8;entryX=0;entryY=0.5;entryDx=0;entryDy=0;" parent="2b4e8129b02d487f-2" source="2b4e8129b02d487f-5" target="2b4e8129b02d487f-7" edge="1">
          <mxGeometry relative="1" as="geometry">
            <mxPoint x="155" y="56.5" as="targetPoint" />
            <Array as="points">
              <mxPoint x="180" y="70" />
              <mxPoint x="180" y="70" />
            </Array>
          </mxGeometry>
        </mxCell>
        <mxCell id="2b4e8129b02d487f-3" value="L2" style="swimlane;html=1;startSize=40;horizontal=0;" parent="2b4e8129b02d487f-1" vertex="1">
          <mxGeometry y="170" width="720" height="150" as="geometry">
            <mxRectangle y="170" width="720" height="40" as="alternateBounds" />
          </mxGeometry>
        </mxCell>
        <mxCell id="ZsROM8cVM0XpCCuU5VTD-8" style="edgeStyle=orthogonalEdgeStyle;rounded=0;orthogonalLoop=1;jettySize=auto;html=1;" edge="1" parent="2b4e8129b02d487f-3" source="2b4e8129b02d487f-9" target="ZsROM8cVM0XpCCuU5VTD-7">
          <mxGeometry relative="1" as="geometry" />
        </mxCell>
        <mxCell id="2b4e8129b02d487f-9" value="电话通知安全运维，提紧急变更" style="rounded=1;whiteSpace=wrap;html=1;shadow=0;labelBackgroundColor=none;strokeWidth=1;fontFamily=Verdana;fontSize=8;align=center;" parent="2b4e8129b02d487f-3" vertex="1">
          <mxGeometry x="230" y="56.49999999999997" width="70" height="37" as="geometry" />
        </mxCell>
        <mxCell id="ZsROM8cVM0XpCCuU5VTD-10" style="edgeStyle=orthogonalEdgeStyle;rounded=0;orthogonalLoop=1;jettySize=auto;html=1;" edge="1" parent="2b4e8129b02d487f-3" source="ZsROM8cVM0XpCCuU5VTD-7" target="ZsROM8cVM0XpCCuU5VTD-9">
          <mxGeometry relative="1" as="geometry" />
        </mxCell>
        <mxCell id="ZsROM8cVM0XpCCuU5VTD-7" value="调用bypass工具bypass waf" style="rounded=1;whiteSpace=wrap;html=1;shadow=0;labelBackgroundColor=none;strokeWidth=1;fontFamily=Verdana;fontSize=8;align=center;" vertex="1" parent="2b4e8129b02d487f-3">
          <mxGeometry x="370" y="56.5" width="70" height="37" as="geometry" />
        </mxCell>
        <mxCell id="ZsROM8cVM0XpCCuU5VTD-9" value="验证访问是否正常" style="rounded=1;whiteSpace=wrap;html=1;shadow=0;labelBackgroundColor=none;strokeWidth=1;fontFamily=Verdana;fontSize=8;align=center;" vertex="1" parent="2b4e8129b02d487f-3">
          <mxGeometry x="520" y="56.5" width="70" height="37" as="geometry" />
        </mxCell>
        <mxCell id="ZsROM8cVM0XpCCuU5VTD-3" value="SOC" style="swimlane;html=1;startSize=40;horizontal=0;" vertex="1" parent="2b4e8129b02d487f-1">
          <mxGeometry y="320" width="720" height="150" as="geometry">
            <mxRectangle y="170" width="720" height="40" as="alternateBounds" />
          </mxGeometry>
        </mxCell>
        <mxCell id="ZsROM8cVM0XpCCuU5VTD-12" value="登录waf console分析拦截是否正常" style="rhombus;whiteSpace=wrap;html=1;" vertex="1" parent="ZsROM8cVM0XpCCuU5VTD-3">
          <mxGeometry x="90" y="50" width="120" height="80" as="geometry" />
        </mxCell>
        <mxCell id="ZsROM8cVM0XpCCuU5VTD-2" style="edgeStyle=orthogonalEdgeStyle;rounded=0;orthogonalLoop=1;jettySize=auto;html=1;entryX=0.5;entryY=0;entryDx=0;entryDy=0;" edge="1" parent="2b4e8129b02d487f-1" source="2b4e8129b02d487f-7" target="ZsROM8cVM0XpCCuU5VTD-12">
          <mxGeometry relative="1" as="geometry">
            <mxPoint x="155" y="370" as="targetPoint" />
            <Array as="points">
              <mxPoint x="235" y="140" />
              <mxPoint x="155" y="140" />
              <mxPoint x="155" y="370" />
            </Array>
          </mxGeometry>
        </mxCell>
        <mxCell id="2b4e8129b02d487f-26" style="edgeStyle=orthogonalEdgeStyle;rounded=0;html=1;labelBackgroundColor=none;startArrow=none;startFill=0;startSize=5;endArrow=classicThin;endFill=1;endSize=5;jettySize=auto;orthogonalLoop=1;strokeWidth=1;fontFamily=Verdana;fontSize=8;exitX=1;exitY=0.5;exitDx=0;exitDy=0;" parent="2b4e8129b02d487f-1" source="ZsROM8cVM0XpCCuU5VTD-12" edge="1">
          <mxGeometry relative="1" as="geometry">
            <mxPoint x="180" y="388.5" as="sourcePoint" />
            <mxPoint x="265" y="270" as="targetPoint" />
            <Array as="points">
              <mxPoint x="210" y="350" />
              <mxPoint x="265" y="350" />
            </Array>
          </mxGeometry>
        </mxCell>
        <mxCell id="ZsROM8cVM0XpCCuU5VTD-15" value="否" style="edgeLabel;html=1;align=center;verticalAlign=middle;resizable=0;points=[];" vertex="1" connectable="0" parent="2b4e8129b02d487f-26">
          <mxGeometry x="0.2226" y="2" relative="1" as="geometry">
            <mxPoint as="offset" />
          </mxGeometry>
        </mxCell>
        <mxCell id="ZsROM8cVM0XpCCuU5VTD-11" style="edgeStyle=orthogonalEdgeStyle;rounded=0;orthogonalLoop=1;jettySize=auto;html=1;entryX=0.5;entryY=1;entryDx=0;entryDy=0;" edge="1" parent="2b4e8129b02d487f-1" source="ZsROM8cVM0XpCCuU5VTD-9" target="2b4e8129b02d487f-8">
          <mxGeometry relative="1" as="geometry">
            <Array as="points">
              <mxPoint x="640" y="245" />
            </Array>
          </mxGeometry>
        </mxCell>
        <mxCell id="ZsROM8cVM0XpCCuU5VTD-13" style="edgeStyle=orthogonalEdgeStyle;rounded=0;orthogonalLoop=1;jettySize=auto;html=1;exitX=0.5;exitY=1;exitDx=0;exitDy=0;" edge="1" parent="2b4e8129b02d487f-1" source="ZsROM8cVM0XpCCuU5VTD-12" target="2b4e8129b02d487f-8">
          <mxGeometry relative="1" as="geometry">
            <Array as="points">
              <mxPoint x="640" y="450" />
            </Array>
          </mxGeometry>
        </mxCell>
        <mxCell id="ZsROM8cVM0XpCCuU5VTD-16" value="是" style="edgeLabel;html=1;align=center;verticalAlign=middle;resizable=0;points=[];" vertex="1" connectable="0" parent="ZsROM8cVM0XpCCuU5VTD-13">
          <mxGeometry x="-0.5318" y="-4" relative="1" as="geometry">
            <mxPoint as="offset" />
          </mxGeometry>
        </mxCell>
      </root>
    </mxGraphModel>
  </diagram>
</mxfile>
